PathFileType	4	(X/Y/Z)	Patient4_TMGait_0pt7_02_left_26.trc.trc
DataRate	CameraRate	NumFrames	NumMarkers	Units	OrigDataRate	OrigDataStartFrame	OrigNumFrames
86.419753086420	86.419753086420	4	33	mm	86.419753086420	124	       141
Frame#	Time	Sacral			L.Shoulder			Chest			R.Shoulder			Neck			R.ASIS			L.ASIS			R.Thigh.Superior			R.Thigh.Lateral			R.Thigh.Inferior			R.Patella			L.Thigh.Superior			L.Thigh.Lateral			L.Thigh.Inferior			L.Patella			L.Shank.Superior			L.Shank.Lateral			L.Shank.Inferior			R.Shank.Superior			R.Shank.Lateral			R.Shank.Inferior			R.Heel			R.Midfoot.Superior			R.Midfoot.Lateral			R.Toe			L.Heel			L.Midfoot.Lateral			L.Midfoot.Superior			L.Toe			L.Elbow			L.Wrist			R.Elbow			R.Wrist			
		X1	Y1	Z1	X2	Y2	Z2	X3	Y3	Z3	X4	Y4	Z4	X5	Y5	Z5	X6	Y6	Z6	X7	Y7	Z7	X8	Y8	Z8	X9	Y9	Z9	X10	Y10	Z10	X11	Y11	Z11	X12	Y12	Z12	X13	Y13	Z13	X14	Y14	Z14	X15	Y15	Z15	X16	Y16	Z16	X17	Y17	Z17	X18	Y18	Z18	X19	Y19	Z19	X20	Y20	Z20	X21	Y21	Z21	X22	Y22	Z22	X23	Y23	Z23	X24	Y24	Z24	X25	Y25	Z25	X26	Y26	Z26	X27	Y27	Z27	X28	Y28	Z28	X29	Y29	Z29	X30	Y30	Z30	X31	Y31	Z31	X32	Y32	Z32	X33	Y33	Z33	

124	31.023285714286	818.540960323873	1000.130631043122	510.991594766760	990.522112868972	1424.659095547892	320.552528390147	1109.429185300993	1347.799903200518	466.897145556342	1050.402057194179	1421.440830178328	649.510332676659	1012.663819397201	1481.037970873625	476.531470456897	1045.293297539124	933.628072594357	618.526272723013	1022.803307282027	945.372729614114	342.555129437855	1044.974240659117	720.435155583370	593.395296032939	942.279215795138	625.489147674691	655.424616955859	1002.349310406316	560.579338541797	574.685782327607	982.463657315027	473.652786642418	578.845697231770	1100.560092790305	769.572368051166	379.182925564138	1057.626798054121	639.501779225584	299.498889368649	1162.353110759583	584.158109416290	362.221303209745	1187.939187285923	515.132196911906	358.577084501779	1169.516289778056	441.154574224264	345.667473095965	1098.692269342628	314.149568678940	294.558499844403	1183.152179261788	212.457941097082	348.393316388794	941.779892704901	389.436227287206	586.621624515359	856.177422939684	297.536075111778	650.225478301781	881.350906556729	198.483131989476	585.387335280341	728.127755438534	42.423330019489	554.713411775898	899.023480054798	95.933065226706	591.887466747476	810.040606190776	36.285909616881	630.531266890445	1018.316774759187	44.458696839669	622.474988923291	1094.168674058820	38.888818921995	384.628176468753	1167.609046618187	41.608422314872	303.741447136524	1241.634135581127	113.905109951591	326.576024424135	1374.254714038384	77.308957273257	299.019451533179	792.226989690988	1139.689598164270	236.902834176911	689.762745159583	901.295153282772	256.929441731530	1223.500010036923	1130.115080663271	737.302610322518	1401.153581116953	1252.581193037921	608.478710212069	
125	31.034857142857	819.740358241695	998.508395781423	508.480821886561	989.893139577547	1423.470533464015	317.960737919665	1109.108340301567	1347.327591092235	464.491995117445	1049.349939344180	1420.819115451956	646.951588446289	1011.517733712700	1480.047375975960	473.895449846355	1046.525627928829	932.251818027670	616.372207240228	1024.524413168715	944.276545844810	340.585270747471	1045.408160201916	718.546515743764	591.842113083810	941.707497374266	624.205347960968	653.596928896471	1001.589815086073	558.631271016810	573.174542146642	980.722940189714	471.321548247091	577.104852316385	1102.085187187652	766.786292783946	377.732715028038	1056.893612214606	636.948186398922	299.341050918812	1161.430543694853	581.096575793418	362.143648595134	1185.455630452460	511.254020241513	359.331640443507	1166.366890516242	437.294450231064	346.297287816507	1094.048855154644	311.180612653189	295.013213666465	1176.416644532975	208.467701378271	349.884317890504	938.653158701349	387.735383217478	585.079487845426	851.804062464123	297.296483526234	649.150277891337	875.188085781142	197.731587183670	584.646565115578	720.053147513660	42.779082714251	554.732202312237	891.168616488027	95.854462641662	591.704943919508	801.992103023469	36.419343720534	630.574631649856	1010.326180704305	43.883991140900	622.583748897729	1083.721453170207	37.695159759986	386.171641115316	1157.286938821327	38.839699620880	305.232980518792	1233.162605865158	108.822387761830	328.742379439153	1365.079236736258	68.701278386539	301.157120319615	791.613813516252	1138.707006804414	235.320434525567	689.233298908460	900.206127373653	256.198727561245	1225.742127814446	1132.157384881691	734.795021896566	1392.320672039693	1266.343700854425	604.326734959243	
126	31.046428571429	820.824271303427	997.038448261884	506.072369538995	989.351578646358	1422.265598026287	315.290619286971	1108.894158582436	1346.846042209926	462.012918502093	1048.530835243128	1420.321441114169	644.316576770981	1010.582321869408	1479.146488060630	471.124498844708	1047.705741382375	930.890579888001	614.158562559819	1025.995755223884	943.350180377530	338.604314894028	1045.945130761536	716.762640682972	590.082704173011	941.434629058851	622.926250127760	651.609649685391	1001.168417820007	556.750980591973	571.457701350609	979.429258793008	468.927319165939	575.237438740901	1103.609946953702	764.578367923588	376.189728134214	1056.672998772233	635.142217738450	298.654632937500	1160.899254441066	578.789391256103	361.729350295947	1183.555772554224	508.256473472993	359.614113674759	1163.902540709034	434.227813902793	346.521417600648	1090.339310329611	309.039249250403	294.644152994393	1170.328029226697	205.281230967802	350.787285343260	935.855989154757	386.070270177598	583.409007250678	847.696714367140	297.183915657454	648.007779944462	869.195477195181	197.101306208016	583.856765245145	712.005976610423	43.426014010895	554.769436495230	883.442859120102	95.831809142093	591.534682914359	794.000363957685	36.676813655249	630.589192377137	1002.410500431229	43.200548206227	622.695336075901	1073.860386422620	37.082969463948	386.919868266163	1147.653951126383	36.863969832078	306.045298110459	1225.168859423111	104.715994676581	330.350678167155	1356.453248032909	61.436553034383	302.922763608043	791.908854664552	1136.929276844292	233.442998205638	690.140124943533	898.063419527391	254.990065510088	1227.705013808730	1133.851349199102	732.552385797214	1383.146527110036	1278.473242210521	600.750216121936	
127	31.058000000000	821.778287428838	995.791031370578	503.788547288758	988.881992081529	1421.113218794917	312.582870871338	1108.774752568845	1346.404975942048	459.479064280313	1047.974704971753	1419.997334231633	641.634265509609	1009.874705701812	1478.395618635651	468.258804510908	1048.803497713889	929.619034625877	611.867792912448	1027.168469076839	942.657247964098	336.564034773372	1046.535684968823	715.172608693138	588.086124579122	941.441215132754	621.724759095315	649.472126960360	1001.075816613625	555.019006737346	569.553026603748	978.620942693046	466.529517882533	573.323579713989	1105.079944076890	763.085286399249	374.525735659829	1056.966159979279	634.120785756716	297.452550222173	1160.723111583171	577.261531073628	360.945585182625	1182.221544410461	506.143925694897	359.386333677580	1162.081054081555	431.946389354964	346.350328755799	1087.466170558043	307.702594934208	293.577730270546	1164.839145044041	202.895902949879	351.168240533712	933.408965346743	384.510242673243	581.677536003007	843.857681183029	297.274383246942	646.824094412953	863.403231666062	196.667314204462	583.055924366806	704.009852740534	44.485591540375	554.834050324858	875.886590148443	95.886666311239	591.398473972663	786.081335028153	37.120518958608	630.578823129820	994.571560268906	42.421007800224	622.804379243282	1064.667858182166	36.934520435363	387.049847523393	1138.731933278886	35.615775534930	306.304469586807	1217.606956929532	101.639148099827	331.421533093344	1348.348992211146	55.737333928985	304.241820874453	793.113543783396	1134.418312855186	231.269163899662	692.518001211076	894.913774329753	253.302627499564	1229.312833160665	1135.163311585948	730.573002572973	1373.783750885616	1288.961827035319	597.709299152835	
